<svg width="381" height="290" viewBox="0 0 381 290" fill="none" xmlns="http://www.w3.org/2000/svg">
<path d="M352.514 263.584C340.031 273.107 324.822 282.753 309.87 287.301C305.559 288.651 301.111 289.513 296.609 289.871C292.4 290.21 288.164 289.881 284.057 288.895C273.266 286.207 263.256 281.498 253.572 275.997C250.407 274.197 247.28 272.314 244.17 270.39C239.095 267.248 234.069 263.996 229.03 260.822C228.276 260.341 227.526 259.869 226.772 259.402H226.767C225.551 258.637 224.331 257.883 223.109 257.139C222.894 257.007 222.679 256.878 222.46 256.745C220.15 255.344 217.802 253.974 215.413 252.637C215.121 252.477 214.828 252.312 214.535 252.151C209.914 249.584 205.165 247.255 200.305 245.175C197.114 243.829 193.881 242.615 190.616 241.58H190.611C189.363 241.186 188.11 240.815 186.853 240.476C183.082 239.44 179.24 238.686 175.357 238.222C170.007 237.574 164.596 237.617 159.257 238.351C158.896 238.401 158.539 238.451 158.178 238.511C143.728 240.829 130.541 248.643 116.028 250.484C115.557 250.544 115.09 250.599 114.619 250.64C114.418 250.658 114.217 250.681 114.016 250.695C109.798 251.056 105.553 250.952 101.359 250.383C89.639 248.835 78.2258 244.03 67.9511 237.975C43.9312 223.817 24.4519 202.056 12.6088 176.854C10.5751 172.535 8.76952 168.112 7.19946 163.603C2.80972 151.1 0.392274 137.988 0.0341634 124.739C-1.07698 78.7699 25.0006 32.65 65.9438 11.8596C106.891 -8.93075 160.757 -2.05559 193.78 29.8835C213.813 49.2585 225.404 75.5133 240.48 98.9695C255.556 122.421 276.983 144.824 304.62 148.241C318.699 149.981 333.432 146.615 346.926 150.993C354.398 153.421 360.772 158.066 365.907 163.983C369.359 167.999 372.248 172.468 374.494 177.267C376.14 180.735 377.476 184.344 378.486 188.049C378.674 188.731 378.848 189.414 379.017 190.096C385.738 217.597 374.997 246.426 352.514 263.584Z" fill="#E5E5E5"/>
<path d="M114.716 241.997L114.682 235.853L114.189 144.691L114.171 141.28L113.9 91.1061C109.827 88.2891 105.575 85.7983 101.177 83.653C83.9459 75.2669 63.4574 71.8088 46.4923 80.8221C37.4352 85.8208 30.4281 94.3918 26.8716 104.822C26.7715 105.098 26.6791 105.365 26.5946 105.632C23.7652 114.501 23.786 124.134 27.928 132.451C35.343 147.398 51.9254 152.918 66.6533 158.192C81.3735 163.467 97.6988 172.057 101.369 188.592C98.2779 184.416 94.2305 181.219 89.643 179.332C85.0556 177.444 80.0934 176.933 75.2667 177.851C70.4399 178.769 65.9226 181.082 62.1789 184.554C58.4352 188.026 55.6003 192.531 53.9654 197.606C53.6962 198.433 53.4505 199.268 53.2361 200.112C52.7235 202.138 52.4149 204.221 52.3158 206.322C51.5972 222.353 62.7776 236.716 76.0435 243.444C88.0392 249.518 101.502 250.677 114.766 251.26L114.716 241.997Z" fill="#61FF00" fill-opacity="0.46"/>
<path d="M114.683 235.853L114.716 241.997C111.746 233.629 107.263 226.009 101.538 219.598C95.8134 213.187 88.9658 208.118 81.4088 204.697C72.4775 200.751 62.8245 199.18 53.2361 200.112C53.4506 199.268 53.6962 198.433 53.9654 197.606C57.6906 197.315 61.4317 197.377 65.1473 197.791C78.4073 199.275 90.8808 205.409 100.724 215.286C106.494 221.134 111.228 228.107 114.683 235.853Z" fill="white"/>
<path d="M114.171 141.28L114.19 144.691C111.08 141.399 107.727 138.397 104.164 135.717C93.094 127.342 80.589 121.013 67.8966 116.275C54.8883 111.395 41.3853 108.283 27.6889 107.008C27.3806 106.977 27.095 106.817 26.8912 106.56C26.6875 106.304 26.5813 105.972 26.5946 105.632C26.5861 105.332 26.6856 105.041 26.8716 104.822C26.9689 104.72 27.0868 104.645 27.2156 104.602C27.3445 104.559 27.4807 104.551 27.6132 104.577C29.303 104.729 30.9849 104.898 32.6747 105.111C46.6949 106.85 60.4641 110.498 73.6652 115.971C86.4073 121.233 99.0089 128.025 109.778 137.253C111.294 138.523 112.764 139.863 114.171 141.28Z" fill="white"/>
<path d="M40.9128 65.4575C43.5037 65.4575 45.604 63.1492 45.604 60.3017C45.604 57.4542 43.5037 55.1459 40.9128 55.1459C38.3219 55.1459 36.2215 57.4542 36.2215 60.3017C36.2215 63.1492 38.3219 65.4575 40.9128 65.4575Z" fill="#F0F0F0"/>
<path d="M233.233 81.6868H231.893V41.3474C231.893 38.2814 231.343 35.2454 230.276 32.4127C229.208 29.5801 227.643 27.0063 225.671 24.8383C223.698 22.6703 221.356 20.9505 218.779 19.7772C216.201 18.6039 213.439 18 210.649 18H132.886C127.252 18 121.848 20.4598 117.864 24.8383C113.88 29.2167 111.642 35.1552 111.642 41.3473V262.653C111.642 268.845 113.88 274.783 117.864 279.162C121.848 283.54 127.252 286 132.886 286H210.649C216.283 286 221.687 283.54 225.671 279.162C229.655 274.783 231.893 268.845 231.893 262.653V110.401H233.233V81.6868Z" fill="#3F3D56"/>
<path d="M227.372 41.5105V262.492C227.372 262.815 227.364 263.134 227.346 263.453C227.123 267.905 225.357 272.093 222.411 275.157C219.464 278.221 215.561 279.928 211.505 279.926H133.369C129.302 279.927 125.391 278.212 122.443 275.134C119.495 272.056 117.735 267.852 117.528 263.389C117.513 263.094 117.506 262.795 117.506 262.492V41.5105C117.505 36.8862 119.176 32.4511 122.151 29.1809C125.126 25.9106 129.161 24.073 133.369 24.0724H142.851C142.384 25.3302 142.205 26.6947 142.331 28.046C142.457 29.3973 142.884 30.6938 143.573 31.8214C144.262 32.949 145.193 33.873 146.284 34.5122C147.374 35.1513 148.591 35.4859 149.827 35.4865H194.378C195.614 35.4858 196.831 35.1511 197.921 34.5119C199.012 33.8728 199.943 32.9488 200.632 31.8212C201.321 30.6937 201.747 29.3972 201.873 28.0459C201.999 26.6947 201.821 25.3301 201.354 24.0724H211.505C215.713 24.0729 219.748 25.9102 222.724 29.1804C225.699 32.4506 227.371 36.8858 227.372 41.5105Z" fill="white"/>
<path d="M225.929 208.167H118.946C118.57 208.167 118.21 208.003 117.944 207.711C117.678 207.419 117.529 207.023 117.528 206.61V62.3597C117.529 61.9467 117.678 61.5507 117.944 61.2587C118.21 60.9666 118.57 60.8024 118.946 60.8019H225.929C226.304 60.8024 226.665 60.9666 226.93 61.2587C227.196 61.5507 227.346 61.9467 227.346 62.3597V206.61C227.346 207.023 227.196 207.419 226.93 207.711C226.665 208.003 226.304 208.167 225.929 208.167Z" fill="#F0F0F0"/>
<path d="M218.077 70.8673H127.017C126.641 70.8676 126.28 71.0319 126.014 71.3241C125.748 71.6163 125.599 72.0126 125.599 72.4258V176.654C125.6 177.067 125.75 177.462 126.015 177.754C126.281 178.045 126.641 178.209 127.017 178.209H218.077C218.453 178.209 218.813 178.045 219.079 177.754C219.344 177.462 219.494 177.067 219.495 176.654V72.4258C219.495 72.0126 219.345 71.6163 219.08 71.3241C218.814 71.0319 218.453 70.8676 218.077 70.8673Z" fill="white"/>
<path d="M125.437 55.549C127.466 55.549 129.111 53.7413 129.111 51.5114C129.111 49.2816 127.466 47.4739 125.437 47.4739C123.408 47.4739 121.763 49.2816 121.763 51.5114C121.763 53.7413 123.408 55.549 125.437 55.549Z" fill="#63CCFF"/>
<path d="M142.911 183.348C136.638 172.244 138.8 158.058 139.856 145.04C141.433 125.508 140.01 105.823 135.646 86.8096C140.844 93.189 144.273 101.069 145.531 109.52C146.566 116.567 146.054 123.818 147.228 130.839C149.743 145.894 159.873 159.472 158.305 174.682C157.959 178.044 156.793 181.659 154.077 183.253C151.011 185.051 147.269 183.621 144.054 182.173" fill="#F0F0F0"/>
<path d="M132.324 187.957C131.637 187.199 130.704 186.771 129.73 186.768C128.756 186.765 127.821 187.188 127.131 187.943C126.441 188.698 126.051 189.724 126.049 190.794C126.046 191.864 126.431 192.892 127.118 193.651L127.131 193.665L132.324 199.372L137.518 193.665C138.204 192.907 138.588 191.881 138.587 190.813C138.585 189.744 138.198 188.72 137.511 187.964C136.823 187.209 135.891 186.784 134.919 186.783C133.947 186.781 133.014 187.204 132.324 187.957V187.957Z" fill="#63CCFF"/>
<path d="M148.489 187.957C147.802 187.199 146.869 186.771 145.895 186.768C144.921 186.765 143.986 187.188 143.295 187.943C142.605 188.698 142.216 189.724 142.213 190.794C142.211 191.864 142.595 192.892 143.282 193.651L143.295 193.665L148.489 199.372L153.682 193.665C154.368 192.907 154.752 191.881 154.751 190.813C154.75 189.744 154.363 188.72 153.675 187.964C152.988 187.209 152.056 186.784 151.083 186.783C150.111 186.781 149.178 187.204 148.489 187.957V187.957Z" fill="#63CCFF"/>
<path d="M164.653 187.957C163.966 187.199 163.033 186.771 162.059 186.768C161.085 186.765 160.15 187.188 159.46 187.943C158.769 188.698 158.38 189.724 158.378 190.794C158.375 191.864 158.76 192.892 159.447 193.651L159.459 193.665L164.653 199.372L169.847 193.665C170.532 192.907 170.917 191.881 170.915 190.813C170.914 189.744 170.527 188.72 169.84 187.964C169.152 187.209 168.22 186.784 167.248 186.783C166.275 186.781 165.342 187.204 164.653 187.957V187.957Z" fill="#63CCFF"/>
<path d="M193.205 54.6778H141.401C141.028 54.6783 140.659 54.598 140.315 54.4417C139.971 54.2853 139.658 54.0559 139.394 53.7666C139.13 53.4772 138.921 53.1336 138.779 52.7554C138.636 52.3772 138.563 51.9717 138.563 51.5623C138.563 51.1529 138.636 50.7474 138.779 50.3692C138.921 49.991 139.13 49.6474 139.394 49.358C139.658 49.0687 139.971 48.8393 140.315 48.6829C140.659 48.5266 141.028 48.4463 141.401 48.4468H193.205C193.578 48.4463 193.947 48.5266 194.291 48.6829C194.635 48.8393 194.948 49.0687 195.212 49.358C195.476 49.6474 195.685 49.991 195.827 50.3692C195.97 50.7474 196.043 51.1529 196.043 51.5623C196.043 51.9717 195.97 52.3772 195.827 52.7554C195.685 53.1336 195.476 53.4772 195.212 53.7666C194.948 54.0559 194.635 54.2853 194.291 54.4417C193.947 54.598 193.578 54.6783 193.205 54.6778Z" fill="#63CCFF"/>
<path d="M225.928 235.223H118.946C118.57 235.223 118.209 235.387 117.943 235.68C117.677 235.972 117.528 236.368 117.528 236.781V263.389C117.735 267.852 119.495 272.056 122.443 275.134C125.391 278.212 129.302 279.927 133.369 279.926H211.505C215.561 279.928 219.464 278.221 222.411 275.157C225.357 272.093 227.123 267.905 227.346 263.453V236.781C227.346 236.368 227.196 235.972 226.93 235.68C226.664 235.387 226.304 235.223 225.928 235.223Z" fill="#F0F0F0"/>
<path d="M218.077 245.288H127.017C126.641 245.289 126.28 245.453 126.014 245.745C125.748 246.037 125.599 246.434 125.599 246.847V277.693C127.97 279.162 130.647 279.931 133.369 279.926H211.505C214.313 279.931 217.071 279.112 219.495 277.556V246.847C219.495 246.434 219.345 246.037 219.08 245.745C218.814 245.453 218.453 245.289 218.077 245.288Z" fill="white"/>
<path d="M125.437 229.97C127.466 229.97 129.111 228.162 129.111 225.932C129.111 223.703 127.466 221.895 125.437 221.895C123.408 221.895 121.763 223.703 121.763 225.932C121.763 228.162 123.408 229.97 125.437 229.97Z" fill="#E4E4E4"/>
<path d="M193.205 229.099H141.401C141.028 229.099 140.659 229.019 140.315 228.863C139.971 228.706 139.658 228.477 139.394 228.188C139.13 227.898 138.921 227.555 138.779 227.176C138.636 226.798 138.563 226.393 138.563 225.983C138.563 225.574 138.636 225.168 138.779 224.79C138.921 224.412 139.13 224.068 139.394 223.779C139.658 223.49 139.971 223.26 140.315 223.104C140.659 222.948 141.028 222.867 141.401 222.868H193.205C193.578 222.867 193.947 222.948 194.291 223.104C194.635 223.26 194.948 223.49 195.212 223.779C195.476 224.068 195.685 224.412 195.827 224.79C195.97 225.168 196.043 225.574 196.043 225.983C196.043 226.393 195.97 226.798 195.827 227.176C195.685 227.555 195.476 227.898 195.212 228.188C194.948 228.477 194.635 228.706 194.291 228.863C193.947 229.019 193.578 229.099 193.205 229.099Z" fill="#E4E4E4"/>
<path d="M163.923 279.926H137.006C139.746 273.999 144.805 269.17 150.767 268.916C151.666 268.879 152.565 268.952 153.449 269.134C153.82 269.207 154.184 269.304 154.548 269.408C156.835 270.055 158.917 271.377 160.57 273.231C162.222 275.085 163.382 277.4 163.923 279.926Z" fill="#F2F2F2"/>
<path d="M206.975 279.926H170.425C170.987 278.083 171.464 276.21 171.855 274.314C173.497 266.518 175.168 257.764 181.226 253.331C184.599 250.86 188.702 250.456 192.592 251.546C192.71 251.579 192.831 251.615 192.949 251.655C197.538 253.054 201.477 256.306 203.977 260.76C207.074 266.469 207.765 273.26 206.975 279.926Z" fill="#F2F2F2"/>
<path d="M154.926 275.166C154.908 276.761 154.78 278.353 154.54 279.926H153.49C154.042 276.353 154.028 272.702 153.449 269.134C153.82 269.207 154.184 269.304 154.548 269.409C154.826 271.312 154.953 273.238 154.926 275.166Z" fill="white"/>
<path d="M193.085 252.027C193.088 252.899 193.085 253.775 193.063 254.651C192.901 261.935 191.913 269.168 190.124 276.183C189.808 277.435 189.466 278.683 189.099 279.926H188.019C188.68 277.714 189.257 275.473 189.757 273.228C191.302 266.338 192.072 259.265 192.049 252.168C192.05 252.008 192.106 251.854 192.208 251.738C192.309 251.622 192.447 251.554 192.593 251.546C192.72 251.531 192.847 251.57 192.949 251.655C192.996 251.701 193.033 251.759 193.057 251.823C193.081 251.888 193.09 251.958 193.085 252.027Z" fill="white"/>
<path d="M212.487 259.47C213.704 259.47 214.691 258.386 214.691 257.048C214.691 255.71 213.704 254.625 212.487 254.625C211.27 254.625 210.283 255.71 210.283 257.048C210.283 258.386 211.27 259.47 212.487 259.47Z" fill="#F2F2F2"/>
<path d="M159.652 82.6802C160.869 82.6802 161.856 81.5956 161.856 80.2577C161.856 78.9198 160.869 77.8352 159.652 77.8352C158.435 77.8352 157.448 78.9198 157.448 80.2577C157.448 81.5956 158.435 82.6802 159.652 82.6802Z" fill="#63CCFF"/>
<path d="M200.43 96.8116C201.648 96.8116 202.634 95.727 202.634 94.389C202.634 93.0511 201.648 91.9665 200.43 91.9665C199.213 91.9665 198.226 93.0511 198.226 94.389C198.226 95.727 199.213 96.8116 200.43 96.8116Z" fill="#E4E4E4"/>
<path d="M199.328 146.069C200.545 146.069 201.532 144.985 201.532 143.647C201.532 142.309 200.545 141.224 199.328 141.224C198.111 141.224 197.124 142.309 197.124 143.647C197.124 144.985 198.111 146.069 199.328 146.069Z" fill="#E4E4E4"/>
<path d="M264.346 194.315C264.376 193.617 264.545 192.935 264.841 192.317C265.137 191.698 265.552 191.158 266.059 190.736C266.565 190.313 267.149 190.017 267.771 189.869C268.392 189.722 269.036 189.726 269.656 189.881L275.407 180.973L281.185 183.494L272.902 195.948C272.596 197.076 271.924 198.04 271.014 198.66C270.104 199.279 269.019 199.51 267.964 199.309C266.909 199.107 265.958 198.488 265.291 197.568C264.625 196.647 264.288 195.49 264.346 194.315H264.346Z" fill="#A0616A"/>
<path d="M270.655 186.654L280.881 167.752L276.715 155.542L282.389 138.911L282.598 139.01C282.735 139.075 285.96 140.656 286.437 146.319L292.958 168.842L275.555 193.655L270.655 186.654Z" fill="#3F3D56"/>
<path d="M215.117 117.165C215.747 117.252 216.353 117.49 216.891 117.862C217.43 118.234 217.887 118.731 218.231 119.318C218.576 119.906 218.799 120.569 218.885 121.262C218.971 121.954 218.917 122.659 218.729 123.326L226.365 130.317L223.632 136.453L212.973 126.414C211.974 125.992 211.151 125.181 210.66 124.136C210.168 123.091 210.043 121.884 210.307 120.743C210.571 119.603 211.206 118.609 212.093 117.95C212.979 117.29 214.055 117.011 215.116 117.165L215.117 117.165Z" fill="#A0616A"/>
<path d="M221.579 124.67L237.935 137.337L249.334 133.716L263.982 141.219L263.876 141.441C263.807 141.586 262.124 144.997 256.95 145.083L236.013 150.486L214.849 129.499L221.579 124.67Z" fill="#3F3D56"/>
<path d="M251.508 278.702L245.822 278.701L243.117 254.596L251.509 254.596L251.508 278.702Z" fill="#A0616A"/>
<path d="M240.042 276.916H252.727V284.504H234.855V282.616C234.855 281.104 235.402 279.654 236.374 278.585C237.347 277.516 238.667 276.916 240.042 276.916Z" fill="#2F2E41"/>
<path d="M274.235 278.702L268.549 278.701L265.844 254.596L274.237 254.596L274.235 278.702Z" fill="#A0616A"/>
<path d="M262.769 276.916H275.454V284.504H257.583V282.616C257.583 281.104 258.129 279.654 259.102 278.585C260.074 277.516 261.394 276.916 262.769 276.916Z" fill="#2F2E41"/>
<path d="M276.258 190.715L275.794 226.398L275.33 273.295L265.126 272.276L260.024 207.537L253.531 272.276H242.996L241.935 207.027L245.646 192.754L276.258 190.715Z" fill="#2F2E41"/>
<path d="M244.628 192.972L243.074 192.898L250.295 149.182L247.338 135.968C247.184 135.281 247.266 134.555 247.566 133.929C247.867 133.303 248.366 132.82 248.969 132.571L254.288 130.379L256.167 124.699L270.995 126.455L271.359 130.894C272.966 131.46 286.197 136.303 285.284 141.821C284.383 147.268 279.063 164.403 278.793 165.272L277.861 189.846L277.747 189.909C277.609 189.985 267.389 195.508 256.286 195.507C252.376 195.506 248.355 194.821 244.628 192.972Z" fill="#3F3D56"/>
<path d="M272.367 115.783C275.195 110.097 273.294 102.968 268.121 99.8601C262.947 96.7519 256.461 98.8415 253.633 104.527C250.805 110.213 252.706 117.342 257.879 120.45C263.053 123.558 269.539 121.469 272.367 115.783Z" fill="#A0616A"/>
<path d="M271.647 121.513C269.613 123.895 265.834 122.616 265.569 119.362C265.548 119.11 265.55 118.855 265.574 118.603C265.711 117.162 266.468 115.853 266.287 114.331C266.246 113.953 266.117 113.592 265.914 113.283C264.293 110.897 260.487 114.35 258.957 112.19C258.018 110.865 259.121 108.78 258.401 107.3C257.451 105.346 254.637 106.31 252.871 105.24C250.908 104.049 251.025 100.738 252.318 98.7237C253.894 96.2673 256.659 94.9566 259.388 94.7677C262.118 94.5788 264.829 95.3898 267.377 96.4813C270.273 97.7215 273.144 99.4354 274.926 102.234C277.093 105.637 277.302 110.211 276.218 114.191C275.559 116.611 273.309 119.568 271.647 121.513Z" fill="#2F2E41"/>
<path d="M335.633 285.284H23.3674C23.2699 285.284 23.1765 285.241 23.1076 285.166C23.0387 285.09 23 284.987 23 284.88C23 284.773 23.0387 284.67 23.1076 284.595C23.1765 284.519 23.2699 284.477 23.3674 284.477H335.633C335.73 284.477 335.824 284.519 335.892 284.595C335.961 284.67 336 284.773 336 284.88C336 284.987 335.961 285.09 335.892 285.166C335.824 285.241 335.73 285.284 335.633 285.284Z" fill="#3F3D56"/>
<path d="M140.66 112.02C139.569 112.02 138.591 111.796 137.724 111.35C136.87 110.903 136.2 110.273 135.714 109.458C135.228 108.644 134.985 107.705 134.985 106.641C134.985 105.918 135.13 105.255 135.419 104.651C135.708 104.047 136.128 103.567 136.68 103.213C137.231 102.845 137.881 102.661 138.63 102.661C140.049 102.661 141.31 102.904 142.413 103.39C143.53 103.863 144.397 104.546 145.014 105.439C145.644 106.332 145.96 107.363 145.96 108.532C145.96 109.307 145.671 109.957 145.093 110.483C144.528 111.008 143.832 111.396 143.004 111.645C142.19 111.895 141.408 112.02 140.66 112.02ZM140.285 110.995C141.599 110.995 142.702 110.798 143.595 110.404C144.502 110.01 144.955 109.353 144.955 108.434C144.955 106.831 144.337 105.629 143.103 104.828C141.868 104.014 140.292 103.607 138.374 103.607C137.455 103.607 136.804 103.882 136.423 104.434C136.056 104.973 135.872 105.708 135.872 106.641C135.872 107.416 136.056 108.138 136.423 108.808C136.804 109.465 137.33 109.997 138 110.404C138.67 110.798 139.431 110.995 140.285 110.995ZM149.609 112.079C149.425 112.131 149.32 112.158 149.294 112.158C149.189 112.158 149.077 112.105 148.959 112C148.525 111.356 148.21 110.233 148.013 108.631C147.829 107.028 147.737 105.649 147.737 104.493C147.737 104.309 147.869 104.217 148.131 104.217C148.525 104.217 148.722 104.434 148.722 104.868C148.722 104.986 148.716 105.084 148.703 105.163C148.821 104.887 149.044 104.605 149.373 104.316C149.701 104.027 150.082 103.784 150.515 103.587C150.949 103.39 151.389 103.291 151.835 103.291C153.241 103.291 154.266 103.915 154.909 105.163C155.553 106.398 155.875 107.935 155.875 109.774C155.875 110.404 155.809 110.91 155.678 111.291C155.546 111.658 155.369 111.842 155.146 111.842C154.909 111.842 154.791 111.77 154.791 111.626C154.883 110.929 154.929 110.246 154.929 109.577C154.929 107.882 154.633 106.601 154.042 105.735C153.451 104.854 152.67 104.414 151.698 104.414C151.225 104.414 150.765 104.533 150.318 104.769C149.885 105.006 149.53 105.334 149.254 105.754C148.992 106.175 148.86 106.654 148.86 107.193C148.86 107.797 148.893 108.322 148.959 108.769C149.025 109.215 149.13 109.754 149.274 110.384C149.432 111.002 149.543 111.567 149.609 112.079ZM162.104 112C161.263 112 160.488 111.836 159.779 111.507C159.07 111.179 158.505 110.713 158.085 110.109C157.664 109.504 157.454 108.808 157.454 108.02C157.454 107.14 157.618 106.319 157.947 105.557C158.275 104.782 158.754 104.165 159.385 103.705C160.029 103.232 160.777 102.996 161.631 102.996C162.524 102.996 163.201 103.285 163.66 103.863C164.12 104.428 164.337 105.143 164.311 106.01C164.311 106.785 164.002 107.376 163.385 107.784C162.78 108.191 162.005 108.394 161.06 108.394C160.915 108.394 160.698 108.381 160.409 108.355C159.937 108.302 159.602 108.23 159.405 108.138C159.208 108.046 159.109 107.862 159.109 107.587C159.109 107.495 159.135 107.429 159.188 107.39C159.24 107.337 159.345 107.311 159.503 107.311C159.674 107.311 159.976 107.35 160.409 107.429C160.83 107.508 161.204 107.547 161.533 107.547C162.741 107.547 163.345 107.022 163.345 105.971C163.345 105.34 163.227 104.841 162.991 104.474C162.767 104.106 162.367 103.922 161.789 103.922C161.158 103.922 160.593 104.093 160.094 104.434C159.595 104.763 159.208 105.196 158.932 105.735C158.669 106.273 158.538 106.844 158.538 107.449C158.538 108.486 158.827 109.34 159.405 110.01C159.983 110.667 160.876 110.995 162.084 110.995C162.229 110.995 162.472 110.982 162.813 110.956C162.958 110.943 163.135 110.903 163.345 110.838C163.555 110.772 163.706 110.726 163.798 110.7C164.363 110.503 164.777 110.404 165.04 110.404C165.237 110.404 165.388 110.457 165.493 110.562C165.164 111.061 164.672 111.429 164.015 111.665C163.371 111.888 162.734 112 162.104 112ZM172.709 111.251C173.786 111.251 174.62 111.1 175.211 110.798C175.802 110.496 176.098 110.056 176.098 109.478C176.098 108.966 175.92 108.526 175.566 108.158C175.211 107.777 174.771 107.455 174.246 107.193C173.72 106.93 173.004 106.621 172.098 106.266C172.019 106.24 171.829 106.168 171.527 106.05C170.292 105.551 169.34 105.051 168.67 104.552C168.013 104.053 167.685 103.41 167.685 102.621C167.685 101.741 168.033 101.078 168.729 100.631C169.425 100.185 170.318 99.9616 171.408 99.9616C172.21 99.9616 172.945 100.067 173.615 100.277C174.298 100.474 174.837 100.75 175.231 101.104C175.638 101.459 175.842 101.86 175.842 102.306C175.684 102.385 175.533 102.424 175.388 102.424C175.231 102.424 175.067 102.392 174.896 102.326C174.738 102.247 174.502 102.122 174.186 101.952C173.674 101.676 173.195 101.459 172.748 101.301C172.302 101.131 171.776 101.045 171.172 101.045C170.41 101.045 169.793 101.177 169.32 101.439C168.847 101.702 168.611 102.07 168.611 102.543C168.611 102.91 168.768 103.245 169.083 103.548C169.412 103.85 169.819 104.119 170.305 104.355C170.804 104.579 171.467 104.848 172.295 105.163C173.346 105.57 174.213 105.951 174.896 106.306C175.579 106.661 176.157 107.114 176.63 107.665C177.116 108.204 177.359 108.848 177.359 109.596C177.359 110.476 176.938 111.159 176.098 111.645C175.257 112.118 174.213 112.355 172.965 112.355C171.98 112.355 171.008 112.21 170.049 111.921C169.09 111.632 168.269 111.205 167.586 110.641C166.903 110.063 166.47 109.373 166.286 108.572C166.286 108.217 166.384 107.915 166.581 107.665C166.778 107.403 167.021 107.271 167.31 107.271C167.31 108.125 167.547 108.854 168.019 109.458C168.505 110.049 169.156 110.496 169.97 110.798C170.798 111.1 171.71 111.251 172.709 111.251ZM182.099 112C181.968 112.026 181.882 112.039 181.843 112.039C181.436 112.039 181.153 111.737 180.996 111.133C180.851 110.529 180.779 109.682 180.779 108.591C180.779 108.145 180.792 107.449 180.818 106.503C180.845 105.925 180.858 105.492 180.858 105.203C179.242 105.203 178.434 105.019 178.434 104.651C178.434 104.533 178.448 104.441 178.474 104.375C178.513 104.309 178.592 104.277 178.71 104.277L180.858 104.139C180.845 103.495 180.812 102.792 180.759 102.03C180.707 101.347 180.674 100.717 180.661 100.139C180.661 99.9944 180.72 99.8959 180.838 99.8434C180.956 99.7777 181.081 99.7449 181.213 99.7449C181.37 99.7449 181.501 99.8302 181.607 100.001C181.712 100.159 181.764 100.323 181.764 100.494L181.902 104.099L183.537 104.178C183.787 104.152 183.997 104.198 184.168 104.316C184.352 104.434 184.45 104.631 184.463 104.907C184.188 105.025 183.886 105.097 183.557 105.124C183.229 105.15 182.677 105.163 181.902 105.163C181.902 106.385 181.961 108.394 182.079 111.192C182.079 111.481 182.079 111.685 182.079 111.803C182.093 111.908 182.099 111.974 182.099 112ZM189.624 112.02C188.849 112.02 188.147 111.849 187.516 111.507C186.899 111.153 186.413 110.667 186.058 110.049C185.717 109.419 185.546 108.703 185.546 107.902C185.546 106.588 186.025 105.61 186.984 104.966C187.956 104.322 189.145 104.001 190.55 104.001C191.194 104.001 191.792 104.158 192.343 104.474C192.908 104.789 193.361 105.242 193.703 105.833C194.044 106.424 194.215 107.107 194.215 107.882C194.215 108.723 193.998 109.458 193.565 110.089C193.131 110.706 192.56 111.186 191.851 111.527C191.155 111.856 190.412 112.02 189.624 112.02ZM189.408 110.897C190.629 110.897 191.555 110.621 192.186 110.069C192.816 109.517 193.131 108.71 193.131 107.646C193.131 106.923 192.882 106.299 192.383 105.774C191.897 105.249 191.214 104.986 190.334 104.986C189.743 104.986 189.145 105.097 188.541 105.321C187.937 105.544 187.437 105.879 187.043 106.326C186.649 106.772 186.452 107.311 186.452 107.941C186.452 108.467 186.584 108.959 186.846 109.419C187.109 109.866 187.464 110.227 187.91 110.503C188.37 110.765 188.869 110.897 189.408 110.897ZM197.516 112C196.977 110.949 196.551 109.714 196.235 108.296C195.933 106.877 195.782 105.649 195.782 104.611C195.782 104.204 195.874 103.942 196.058 103.823C196.163 103.758 196.242 103.725 196.294 103.725C196.386 103.725 196.452 103.797 196.491 103.942C196.544 104.086 196.596 104.349 196.649 104.73L196.748 105.439C196.892 104.73 197.168 104.171 197.575 103.764C197.995 103.344 198.508 103.134 199.112 103.134C199.782 103.134 200.281 103.265 200.609 103.528C200.938 103.777 201.102 104.198 201.102 104.789C200.445 104.474 199.847 104.316 199.309 104.316C198.797 104.316 198.357 104.454 197.989 104.73C197.621 105.006 197.365 105.413 197.22 105.951C197.102 106.319 197.043 106.667 197.043 106.995C197.043 107.35 197.089 107.685 197.181 108C197.286 108.302 197.444 108.677 197.654 109.123C197.851 109.583 198.002 109.977 198.107 110.306C198.225 110.634 198.291 110.989 198.304 111.37C198.304 111.593 198.225 111.757 198.068 111.862C197.91 111.954 197.726 112 197.516 112ZM206.531 112C205.691 112 204.916 111.836 204.206 111.507C203.497 111.179 202.932 110.713 202.512 110.109C202.092 109.504 201.882 108.808 201.882 108.02C201.882 107.14 202.046 106.319 202.374 105.557C202.702 104.782 203.182 104.165 203.812 103.705C204.456 103.232 205.205 102.996 206.059 102.996C206.952 102.996 207.628 103.285 208.088 103.863C208.548 104.428 208.764 105.143 208.738 106.01C208.738 106.785 208.429 107.376 207.812 107.784C207.208 108.191 206.433 108.394 205.487 108.394C205.343 108.394 205.126 108.381 204.837 108.355C204.364 108.302 204.029 108.23 203.832 108.138C203.635 108.046 203.537 107.862 203.537 107.587C203.537 107.495 203.563 107.429 203.615 107.39C203.668 107.337 203.773 107.311 203.931 107.311C204.101 107.311 204.403 107.35 204.837 107.429C205.257 107.508 205.632 107.547 205.96 107.547C207.168 107.547 207.773 107.022 207.773 105.971C207.773 105.34 207.654 104.841 207.418 104.474C207.195 104.106 206.794 103.922 206.216 103.922C205.586 103.922 205.021 104.093 204.522 104.434C204.023 104.763 203.635 105.196 203.359 105.735C203.097 106.273 202.965 106.844 202.965 107.449C202.965 108.486 203.254 109.34 203.832 110.01C204.41 110.667 205.303 110.995 206.512 110.995C206.656 110.995 206.899 110.982 207.241 110.956C207.385 110.943 207.562 110.903 207.773 110.838C207.983 110.772 208.134 110.726 208.226 110.7C208.791 110.503 209.204 110.404 209.467 110.404C209.664 110.404 209.815 110.457 209.92 110.562C209.592 111.061 209.099 111.429 208.443 111.665C207.799 111.888 207.162 112 206.531 112ZM147.808 137.474C147.808 138.42 147.682 139.313 147.429 140.154C147.198 140.995 146.799 141.73 146.231 142.361C145.685 142.991 144.971 143.496 144.088 143.874C143.205 144.231 142.133 144.41 140.872 144.41C139.548 144.41 138.445 144.242 137.562 143.905C136.68 143.569 135.934 143.159 135.324 142.676L136.806 139.587C137.331 139.923 137.909 140.249 138.54 140.564C139.191 140.879 139.853 141.037 140.526 141.037C141.534 141.037 142.343 140.774 142.953 140.249C143.583 139.702 143.899 138.704 143.899 137.254V127.702H137.373V124.486H147.808V137.474ZM175.581 144L174.667 139.492H169.465L168.582 144H164.547C165.472 140.154 166.407 136.655 167.353 133.502C168.299 130.329 169.213 127.324 170.096 124.486H174.32C175.245 127.345 176.159 130.381 177.062 133.597C177.987 136.791 178.88 140.259 179.742 144H175.581ZM172.113 128.269C171.903 129.005 171.703 129.709 171.514 130.381C171.346 131.033 171.178 131.684 171.01 132.336C170.863 132.966 170.716 133.607 170.568 134.259C170.442 134.91 170.316 135.583 170.19 136.277H174.005C173.878 135.583 173.752 134.91 173.626 134.259C173.5 133.607 173.353 132.966 173.185 132.336C173.038 131.684 172.87 131.033 172.681 130.381C172.512 129.709 172.323 129.005 172.113 128.269ZM201.273 124.266C202.387 124.266 203.396 124.392 204.3 124.644C205.203 124.896 205.981 125.285 206.632 125.81C207.284 126.336 207.778 127.008 208.114 127.828C208.471 128.627 208.65 129.572 208.65 130.665C208.65 131.8 208.419 132.83 207.956 133.755C207.494 134.679 206.727 135.383 205.655 135.867C206.012 136.413 206.391 137.023 206.79 137.695C207.189 138.347 207.578 139.04 207.956 139.776C208.335 140.49 208.692 141.215 209.028 141.951C209.386 142.665 209.69 143.348 209.942 144H205.876C205.392 142.739 204.825 141.531 204.173 140.375C203.543 139.198 202.86 138.01 202.124 136.812H200.107V144H196.229V124.77C196.608 124.686 197.017 124.612 197.459 124.549C197.921 124.465 198.383 124.413 198.846 124.392C199.308 124.35 199.75 124.318 200.17 124.297C200.59 124.276 200.958 124.266 201.273 124.266ZM204.709 130.634C204.709 129.604 204.394 128.847 203.764 128.364C203.133 127.88 202.303 127.639 201.273 127.639C201.126 127.639 200.947 127.649 200.737 127.67C200.527 127.67 200.317 127.691 200.107 127.733V133.597H200.958C202.282 133.597 203.238 133.345 203.827 132.84C204.415 132.315 204.709 131.579 204.709 130.634Z" fill="black"/>
</svg>
